<svg width="445" height="191" viewBox="0 0 445 191" fill="none" xmlns="http://www.w3.org/2000/svg">
<path d="M55.0769 45.76L78.5769 32.76L102.577 46.76V99.76L125.577 86.76V59.76L148.577 46.76L174.077 61.76V88.76L148.577 102.76V127.26L101.077 154.26L55.0769 127.26V45.76Z" fill="#FF2D20"/>
<path fill-rule="evenodd" clip-rule="evenodd" d="M174.653 59.5806C174.698 59.749 174.721 59.9226 174.722 60.0971V87.2148C174.722 87.5629 174.63 87.9048 174.455 88.206C174.281 88.5071 174.03 88.7569 173.728 88.9301L150.968 102.034V128.008C150.968 128.714 150.592 129.367 149.979 129.723L102.469 157.073C102.36 157.135 102.241 157.174 102.123 157.216C102.078 157.231 102.036 157.258 101.989 157.271C101.657 157.358 101.308 157.358 100.976 157.271C100.922 157.256 100.872 157.226 100.82 157.206C100.712 157.167 100.598 157.132 100.494 157.073L52.9936 129.723C52.6918 129.549 52.4411 129.3 52.2666 128.999C52.0922 128.697 52.0002 128.356 52 128.008V46.6544C52 46.4765 52.0247 46.3034 52.0692 46.1354C52.084 46.0785 52.1186 46.0266 52.1384 45.9698C52.1755 45.866 52.2101 45.7597 52.2645 45.6633C52.3015 45.5991 52.3559 45.5472 52.4004 45.4878C52.4572 45.4088 52.5091 45.3272 52.5759 45.258C52.6327 45.2011 52.7069 45.1591 52.7711 45.1097C52.8428 45.0504 52.9071 44.9861 52.9886 44.9392L76.7426 31.2641C77.0433 31.0911 77.3842 31 77.7312 31C78.0782 31 78.4191 31.0911 78.7198 31.2641L102.471 44.9392H102.476C102.555 44.9886 102.622 45.0504 102.694 45.1072C102.758 45.1567 102.83 45.2011 102.887 45.2555C102.956 45.3272 103.005 45.4088 103.064 45.4878C103.106 45.5472 103.163 45.5991 103.198 45.6633C103.255 45.7622 103.287 45.866 103.326 45.9698C103.346 46.0266 103.381 46.0785 103.396 46.1379C103.441 46.3063 103.464 46.4799 103.465 46.6544V97.4668L123.257 86.0705V60.0946C123.257 59.9216 123.282 59.7461 123.326 59.5806C123.343 59.5212 123.376 59.4693 123.395 59.4125C123.435 59.3087 123.469 59.2024 123.524 59.106C123.561 59.0418 123.615 58.9899 123.657 58.9305C123.717 58.8514 123.766 58.7699 123.835 58.7007C123.892 58.6438 123.964 58.6018 124.028 58.5524C124.102 58.4931 124.166 58.4288 124.246 58.3819L148.002 44.7068C148.303 44.5335 148.644 44.4423 148.991 44.4423C149.338 44.4423 149.679 44.5335 149.979 44.7068L173.731 58.3819C173.815 58.4313 173.879 58.4931 173.953 58.5499C174.015 58.5994 174.087 58.6438 174.143 58.6982C174.213 58.7699 174.262 58.8514 174.321 58.9305C174.366 58.9899 174.42 59.0418 174.455 59.106C174.512 59.2024 174.544 59.3087 174.583 59.4125C174.606 59.4693 174.638 59.5212 174.653 59.5806ZM170.762 86.0705V63.5202L162.451 68.3051L150.968 74.9164V97.4668L170.765 86.0705H170.762ZM147.011 126.863V104.298L135.716 110.749L103.462 129.157V151.935L147.011 126.863ZM55.9594 50.0775V126.863L99.503 151.932V129.159L76.7549 116.285L76.7475 116.28L76.7376 116.275C76.661 116.231 76.5968 116.166 76.5251 116.112C76.4633 116.063 76.3916 116.023 76.3372 115.969L76.3323 115.961C76.268 115.9 76.2235 115.823 76.1692 115.754C76.1197 115.687 76.0604 115.63 76.0209 115.561L76.0184 115.553C75.9739 115.479 75.9467 115.39 75.9146 115.306C75.8825 115.232 75.8405 115.163 75.8207 115.084C75.796 114.99 75.791 114.889 75.7811 114.792C75.7713 114.718 75.7515 114.644 75.7515 114.57V114.565V61.4738L64.2712 54.8599L55.9594 50.0775ZM77.7337 35.2631L57.944 46.6544L77.7287 58.0457L97.5159 46.6519L77.7287 35.2631H77.7337ZM88.0251 106.354L99.5054 99.7455V50.0775L91.1937 54.8624L79.7109 61.4738V111.142L88.0251 106.354ZM148.991 48.7058L129.203 60.0971L148.991 71.4884L168.775 60.0946L148.991 48.7058ZM147.011 74.9164L135.528 68.3051L127.216 63.5202V86.0705L138.697 92.6794L147.011 97.4668V74.9164ZM101.48 125.734L130.503 109.165L145.011 100.885L125.239 89.501L102.474 102.608L81.7252 114.553L101.48 125.734Z" fill="white"/>
<path d="M217.577 95.26H247.577M232.577 110.26V80.26" stroke="#FF2D20" stroke-width="8" stroke-linecap="round"/>
<g clip-path="url(#clip0_1_23)">
<path opacity="0.8" d="M305.106 73.1795L316.309 79.6476C324.972 84.6492 327.942 95.7274 322.941 104.39C322.501 105.153 322.014 105.869 321.486 106.54L294.755 91.1076C293.137 90.1736 291.868 88.8674 290.989 87.3622C289.181 84.2588 289.041 80.3002 290.966 76.9663C293.823 72.0169 300.154 70.3206 305.106 73.1795Z" fill="#3D53F6"/>
<path opacity="0.5" d="M305.106 117.646L316.309 111.178C324.972 106.176 327.942 95.0979 322.941 86.4348C322.501 85.6728 322.014 84.9563 321.486 84.2847L294.755 99.7177C293.137 100.652 291.868 101.958 290.989 103.463C289.181 106.567 289.041 110.525 290.966 113.859C293.823 118.808 300.154 120.505 305.106 117.646Z" fill="#3D53F6"/>
<path opacity="0.5" d="M376.882 73.1795L365.679 79.6476C357.016 84.6492 354.045 95.7274 359.047 104.39C359.487 105.153 359.974 105.869 360.502 106.54L387.232 91.1076C388.85 90.1736 390.119 88.8674 390.998 87.3622C392.807 84.2588 392.947 80.3002 391.022 76.9663C388.164 72.0169 381.833 70.3206 376.882 73.1795Z" fill="#3D53F6"/>
<path opacity="0.8" d="M376.882 117.646L365.679 111.178C357.016 106.176 354.045 95.0979 359.047 86.4348C359.487 85.6728 359.974 84.9563 360.502 84.2847L387.232 99.7177C388.85 100.652 390.119 101.958 390.998 103.463C392.807 106.567 392.947 110.525 391.022 113.859C388.164 118.808 381.833 120.505 376.882 117.646Z" fill="#3D53F6"/>
<path d="M340.994 105.529C346.71 105.529 351.344 100.895 351.344 95.1788C351.344 89.4625 346.71 84.8283 340.994 84.8283C335.277 84.8283 330.644 89.4625 330.644 95.1788C330.644 100.895 335.277 105.529 340.994 105.529Z" fill="#FF2F1D"/>
<path opacity="0.8" d="M318.76 131.065L325.229 119.862C330.23 111.199 341.308 108.228 349.971 113.23C350.733 113.67 351.45 114.157 352.122 114.685L336.689 141.415C335.755 143.034 334.448 144.302 332.943 145.181C329.84 146.989 325.881 147.13 322.547 145.205C317.598 142.347 315.902 136.016 318.76 131.065Z" fill="#FF2F1D"/>
<path opacity="0.5" d="M363.227 131.065L356.759 119.862C351.757 111.199 340.679 108.228 332.016 113.23C331.254 113.67 330.537 114.157 329.866 114.685L345.299 141.415C346.233 143.034 347.539 144.302 349.044 145.181C352.148 146.989 356.106 147.13 359.44 145.205C364.389 142.347 366.086 136.016 363.227 131.065Z" fill="#FF2F1D"/>
<path opacity="0.5" d="M318.76 59.2888L325.229 70.4918C330.23 79.155 341.308 82.1253 349.971 77.1236C350.733 76.6837 351.45 76.1968 352.122 75.6688L336.689 48.938C335.755 47.3202 334.448 46.0515 332.943 45.1724C329.84 43.364 325.881 43.224 322.547 45.1489C317.598 48.0064 315.902 54.3371 318.76 59.2888Z" fill="#3D53F6"/>
<path opacity="0.8" d="M363.227 59.2888L356.759 70.4918C351.757 79.155 340.679 82.1253 332.016 77.1236C331.254 76.6837 330.537 76.1968 329.866 75.6688L345.299 48.938C346.233 47.3202 347.539 46.0515 349.044 45.1724C352.148 43.364 356.106 43.224 359.44 45.1489C364.389 48.0064 366.086 54.3371 363.227 59.2888Z" fill="#3D53F6"/>
</g>
<defs>
<clipPath id="clip0_1_23">
<rect width="103" height="103" fill="white" transform="translate(289.577 43.76)"/>
</clipPath>
</defs>
</svg>
